<svg xmlns="http://www.w3.org/2000/svg" viewBox="0 0 32 32" width="32" height="32">
  <!-- Book -->
  <path d="M4 7 C4 6, 5 5, 7 5 L15 5 C16 5, 16 6, 16 7 L16 27 C16 27, 15 26, 13 26 L7 26 C5 26, 4 25, 4 24 Z" fill="#FAF5E9" stroke="#3A5A40" stroke-width="1.2"/>
  <path d="M28 7 C28 6, 27 5, 25 5 L17 5 C16 5, 16 6, 16 7 L16 27 C16 27, 17 26, 19 26 L25 26 C27 26, 28 25, 28 24 Z" fill="#FAF5E9" stroke="#3A5A40" stroke-width="1.2"/>
  <!-- Lines on left page -->
  <line x1="7" y1="10" x2="13" y2="10" stroke="#A8C1A8" stroke-width="0.8" stroke-linecap="round"/>
  <line x1="7" y1="13" x2="12" y2="13" stroke="#A8C1A8" stroke-width="0.8" stroke-linecap="round"/>
  <line x1="7" y1="16" x2="11" y2="16" stroke="#A8C1A8" stroke-width="0.8" stroke-linecap="round"/>
  <!-- Sprout growing from book -->
  <path d="M16 18 C16 14, 16 12, 16 10" stroke="#3A5A40" stroke-width="1.5" stroke-linecap="round" fill="none"/>
  <path d="M16 14 C13 11, 11 10, 10 8 C12 9, 14 11, 16 14" fill="#588157"/>
  <path d="M16 11 C19 8, 21 7, 22 5 C20 6, 18 8, 16 11" fill="#588157"/>
  <path d="M16 8 C14 5, 13 4, 12 2 C13 4, 15 6, 16 8" fill="#7DA27D"/>
  <!-- Earth/soil at base -->
  <ellipse cx="16" cy="19" rx="5" ry="1.5" fill="#8B6914" opacity="0.5"/>
  <!-- Bookmark -->
  <path d="M6 5 L6 9 L7.5 8 L9 9 L9 5" fill="#DDA15E"/>
  <!-- Sun -->
  <circle cx="25" cy="4" r="2.5" fill="#DDA15E"/>
  <line x1="25" y1="0" x2="25" y2="1" stroke="#DDA15E" stroke-width="1" stroke-linecap="round"/>
  <line x1="28" y1="1.5" x2="27.3" y2="2.2" stroke="#DDA15E" stroke-width="1" stroke-linecap="round"/>
  <line x1="29" y1="4" x2="28" y2="4" stroke="#DDA15E" stroke-width="1" stroke-linecap="round"/>
</svg>
